<?xml version="1.0" encoding="UTF-8" standalone="no" ?>
<!DOCTYPE svg PUBLIC "-//W3C//DTD SVG 1.1//EN" "http://www.w3.org/Graphics/SVG/1.1/DTD/svg11.dtd">
<svg xmlns="http://www.w3.org/2000/svg" xmlns:xlink="http://www.w3.org/1999/xlink" version="1.1" width="1080" height="1080" viewBox="0 0 1080 1080" xml:space="preserve">
<desc>Created with Fabric.js 5.2.4</desc>
<defs>
</defs>
<rect x="0" y="0" width="100%" height="100%" fill="transparent"></rect>
<g transform="matrix(1 0 0 1 540 540)" id="618c8757-59f8-4be1-8ef9-711ea6dfd141"  >
<rect style="stroke: none; stroke-width: 1; stroke-dasharray: none; stroke-linecap: butt; stroke-dashoffset: 0; stroke-linejoin: miter; stroke-miterlimit: 4; fill: rgb(255,255,255); fill-rule: nonzero; opacity: 1;" vector-effect="non-scaling-stroke"  x="-540" y="-540" rx="0" ry="0" width="1080" height="1080" />
</g>
<g transform="matrix(1 0 0 1 540 540)" id="1bf54c0f-93b9-4367-be0f-8fa3f8238146"  >
</g>
<g transform="matrix(1.24 0 0 1.24 540 540)"  >
<g style="" vector-effect="non-scaling-stroke"   >
		<g transform="matrix(0.13 0 0 -0.13 -82.03 0)"  >
<path style="stroke: none; stroke-width: 1; stroke-dasharray: none; stroke-linecap: butt; stroke-dashoffset: 0; stroke-linejoin: miter; stroke-miterlimit: 4; fill: rgb(0,0,0); fill-rule: nonzero; opacity: 1;" vector-effect="non-scaling-stroke"  transform=" translate(-2290, -2840)" d="M 180 2840 L 180 730 L 2290 730 L 4400 730 L 4400 1125 L 4400 1520 L 4290 1520 L 4180 1520 L 4180 1235 L 4180 950 L 2290 950 L 400 950 L 400 2840 L 400 4730 L 2288 4728 L 4175 4725 L 4178 4443 L 4180 4160 L 4290 4160 L 4400 4160 L 4398 4553 L 4395 4945 L 2288 4948 L 180 4950 L 180 2840 z" stroke-linecap="round" />
</g>
		<g transform="matrix(0.13 0 0 -0.13 -82.7 -1.68)"  >
<path style="stroke: none; stroke-width: 1; stroke-dasharray: none; stroke-linecap: butt; stroke-dashoffset: 0; stroke-linejoin: miter; stroke-miterlimit: 4; fill: rgb(0,0,0); fill-rule: nonzero; opacity: 1;" vector-effect="non-scaling-stroke"  transform=" translate(-2285, -2852.57)" d="M 1477 4032 C 1465 4019 1459 3975 1450 3845 C 1440 3689 1405 3340 1396 3296 C 1392 3279 1397 3278 1493 3285 C 1549 3289 1598 3295 1602 3299 C 1605 3302 1616 3345 1625 3393 C 1670 3639 1765 3735 2000 3770 C 2052 3779 2721 3812 2727 3806 C 2728 3806 2411 3351 2024 2796 L 1319 1787 L 1347 1723 L 1374 1660 L 1425 1661 C 1452 1661 1511 1665 1555 1669 C 1599 1674 1958 1673 2353 1667 L 3072 1657 L 3105 1691 C 3138 1724 3139 1728 3149 1850 C 3155 1919 3176 2091 3196 2233 C 3216 2375 3231 2492 3229 2494 C 3227 2496 3178 2492 3122 2486 L 3018 2475 L 2989 2360 C 2924 2110 2816 1964 2650 1905 C 2617 1893 2528 1885 2325 1875 C 2171 1867 1987 1858 1916 1855 L 1788 1849 L 1936 2067 C 2358 2689 2698 3160 3074 3642 L 3251 3870 L 3223 3927 L 3195 3985 L 2670 3997 C 2381 4003 2005 4018 1833 4029 C 1460 4054 1497 4054 1477 4032 z" stroke-linecap="round" />
</g>
		<g transform="matrix(0.13 0 0 -0.13 235 2.27)"  >
<path style="stroke: none; stroke-width: 1; stroke-dasharray: none; stroke-linecap: butt; stroke-dashoffset: 0; stroke-linejoin: miter; stroke-miterlimit: 4; fill: rgb(0,0,0); fill-rule: nonzero; opacity: 1;" vector-effect="non-scaling-stroke"  transform=" translate(-4667.75, -2823.01)" d="M 4178 4013 L 3772 4010 L 3760 3937 C 3740 3814 3731 3826 3847 3820 C 3962 3814 3998 3797 4012 3742 C 4017 3724 4019 3329 4018 2863 L 4015 2015 L 3991 1966 C 3962 1909 3904 1867 3820 1844 C 3720 1816 3725 1822 3713 1723 C 3707 1675 3703 1633 3706 1631 C 3708 1629 3751 1633 3802 1639 C 4076 1672 4280 1672 4585 1639 C 4716 1624 4865 1636 5001 1670 C 5265 1738 5496 1914 5583 2115 C 5633 2230 5645 2381 5612 2488 C 5558 2661 5383 2804 5140 2873 L 5056 2898 L 5125 2933 C 5302 3022 5432 3171 5471 3330 C 5492 3416 5487 3562 5461 3639 C 5400 3816 5264 3927 5032 3986 C 4918 4016 4833 4019 4178 4013 z M 4735 3794 C 5009 3749 5146 3577 5111 3320 C 5091 3172 5014 3062 4877 2985 C 4798 2942 4779 2940 4521 2962 L 4377 2973 L 4384 3219 C 4390 3470 4405 3722 4416 3773 C 4419 3789 4432 3805 4443 3810 C 4470 3822 4615 3814 4735 3794 z M 4866 2714 C 4977 2682 5039 2649 5109 2584 C 5240 2462 5276 2259 5196 2085 C 5116 1909 4909 1833 4610 1871 C 4457 1889 4380 1944 4361 2046 C 4354 2082 4362 2711 4369 2738 C 4370 2739 4462 2740 4574 2740 C 4763 2740 4784 2738 4866 2714 z" stroke-linecap="round" />
</g>
</g>
</g>
</svg>